PathFileType	4	(X/Y/Z)	C:\Users\dbl\Desktop\20210112\20210112\bx_n_5_902.trc
DataRate	CameraRate	NumFrames	NumMarkers	Units	OrigDataRate	OrigDataStartFrame	OrigNumFrames
50.00	50.00	       4	43	mm	50.00	205	       545
Frame#	Time	Top.Head			R.Acromium			L.Acromium			Sternum			R.ASIS			L.ASIS			V.Sacral			R.Thigh.Upper			R.Thigh.Front			R.Thigh.Rear			R.Knee.Lat			R.Knee.Med			R.Shank.Upper			R.Shank.Front			R.Shank.Rear			R.Ankle.Lat			R.Midfoot.Lat			R.Toe.Lat			R.Toe.Tip			R.Toe.Med			R.Ankle.Med			R.Midfoot.Sup			R.Heel			L.Thigh.Upper			L.Thigh.Front			L.Thigh.Rear			L.Knee.Lat			L.Knee.Med			L.Shank.Upper			L.Shank.Front			L.Shank.Rear			L.Ankle.Lat			L.Midfoot.Lat			L.Toe.Lat			L.Toe.Tip			L.Toe.Med			L.Ankle.Med			L.Midfoot.Sup			L.Heel			origin1 front left			origin2 front right			origin 3 back right			origin 4 back leftt			
		X1	Y1	Z1	X2	Y2	Z2	X3	Y3	Z3	X4	Y4	Z4	X5	Y5	Z5	X6	Y6	Z6	X7	Y7	Z7	X8	Y8	Z8	X9	Y9	Z9	X10	Y10	Z10	X11	Y11	Z11	X12	Y12	Z12	X13	Y13	Z13	X14	Y14	Z14	X15	Y15	Z15	X16	Y16	Z16	X17	Y17	Z17	X18	Y18	Z18	X19	Y19	Z19	X20	Y20	Z20	X21	Y21	Z21	X22	Y22	Z22	X23	Y23	Z23	X24	Y24	Z24	X25	Y25	Z25	X26	Y26	Z26	X27	Y27	Z27	X28	Y28	Z28	X29	Y29	Z29	X30	Y30	Z30	X31	Y31	Z31	X32	Y32	Z32	X33	Y33	Z33	X34	Y34	Z34	X35	Y35	Z35	X36	Y36	Z36	X37	Y37	Z37	X38	Y38	Z38	X39	Y39	Z39	X40	Y40	Z40	X41	Y41	Z41	X42	Y42	Z42	X43	Y43	Z43	

205	4.080	-690.46973	98.91933	1846.41248	-681.87183	-74.85436	1536.06384	-686.64227	283.49670	1539.77271	-605.36975	104.33000	1353.97729	-637.37463	-3.93254	1055.52808	-635.30695	241.52402	1074.23230	-835.31165	99.69138	1060.66492	-700.14819	-67.31906	877.00531	-619.01398	-6.36965	809.13220	-716.66724	-56.18578	761.44629	-730.01111	-32.34950	619.67987	-709.83362	75.53210	574.15088	-733.99036	-30.85407	570.82776	-681.05243	16.27430	523.15521	-773.01270	-42.39354	488.34439	-759.70416	-20.32871	207.41106	-648.69116	-68.25011	161.54024	-606.14716	-73.72881	157.89432	-548.18634	-25.56411	162.72742	-600.03961	27.03441	168.09486	-719.42480	69.62311	217.23335	-674.40033	53.21733	159.83096	-793.29700	38.03279	173.42024	-724.54523	285.12045	877.65814	-622.45837	232.86638	797.17615	-729.12518	272.55942	746.91156	-754.66541	254.17879	643.69592	-711.52191	150.22346	576.83673	-754.30103	251.05597	576.86212	-696.39948	212.46886	537.79865	-790.64325	259.59698	501.15829	-770.31458	229.65762	204.00018	-660.76532	299.38968	155.93097	-624.28381	307.88879	157.26607	-556.77716	255.09384	164.64247	-593.22406	220.42677	175.36894	-714.02960	157.29865	219.36124	-675.82147	174.68454	161.72974	-796.14520	180.57907	183.04074	-528.13959	303.99216	146.38702	-518.16724	-72.71017	143.27776	-875.89685	-78.72436	141.29350	-882.55121	296.15115	144.67926	
206	4.100	-695.13727	99.59293	1846.86182	-684.85101	-74.14490	1536.70618	-689.90015	284.19388	1540.23169	-606.28552	105.01234	1354.98730	-636.81171	-3.84890	1055.74451	-633.69641	241.92133	1073.78186	-833.46252	99.96439	1060.33362	-698.13165	-67.14932	876.98236	-617.33270	-5.95942	808.97455	-714.95905	-56.06544	761.48492	-729.06403	-32.19067	619.66486	-709.05145	75.62293	574.12762	-733.13898	-30.77812	570.77142	-680.37982	16.37701	522.98553	-772.29993	-42.36055	488.37918	-759.63141	-20.28660	207.46991	-648.66913	-68.22921	161.54221	-606.14978	-73.69874	157.90826	-548.16351	-25.55808	162.71526	-600.00970	26.97872	168.10268	-719.40472	69.71337	217.19527	-674.39697	53.25233	159.82547	-793.28650	38.05373	173.44553	-722.33417	285.41187	877.58441	-620.54492	232.95239	797.16980	-727.31097	272.78506	746.89624	-753.12665	254.37602	643.74200	-710.35858	150.28491	576.88757	-752.98059	251.14503	576.93457	-695.31641	212.45699	537.65845	-789.50275	259.69714	501.21216	-770.18896	229.51939	204.01195	-660.81671	299.36465	155.96768	-624.29498	307.85660	157.26459	-556.74097	255.07788	164.64731	-593.15942	220.34148	175.30374	-713.97058	157.27446	219.18085	-675.78619	174.63957	161.59901	-796.32843	180.37392	183.20348	-528.13922	303.96326	146.39604	-518.16925	-72.70013	143.26204	-875.88458	-78.69423	141.25819	-882.59369	296.17700	144.66667	
207	4.120	-699.52319	100.18343	1847.18188	-687.56042	-73.52096	1537.26941	-692.95868	284.69922	1540.59363	-607.04993	105.66737	1355.87805	-636.22650	-3.82561	1055.98279	-632.43878	242.49712	1073.09229	-831.73529	100.21977	1059.99329	-696.22913	-66.97974	876.96527	-615.72504	-5.52552	808.87903	-713.33258	-55.91413	761.49512	-728.16064	-31.97053	619.56085	-708.31244	75.73240	574.14337	-732.27551	-30.65230	570.78156	-679.69946	16.47439	522.88837	-771.63336	-42.29106	488.43845	-759.56854	-20.24273	207.48618	-648.66089	-68.19064	161.57886	-606.16266	-73.67339	157.93674	-548.13177	-25.54907	162.71472	-599.94354	26.94383	168.11276	-719.41357	69.79873	217.14467	-674.38281	53.29839	159.81647	-793.27112	38.08939	173.47659	-720.29468	285.69092	877.50494	-618.87775	232.99185	797.09863	-725.63281	272.99451	746.84717	-751.80566	254.56177	643.79364	-709.32855	150.32388	576.90070	-751.83124	251.20636	576.95227	-694.36963	212.49445	537.53009	-788.52411	259.76184	501.23242	-770.08240	229.38716	204.01962	-660.91010	299.36298	155.99474	-624.29254	307.84299	157.27797	-556.70642	255.07365	164.65833	-593.11383	220.25822	175.21596	-713.90259	157.24232	219.04659	-675.73798	174.58852	161.46548	-796.58459	180.19962	183.31114	-528.12311	303.95972	146.41853	-518.17413	-72.71792	143.24773	-875.85291	-78.67120	141.21698	-882.62152	296.20801	144.66855	
208	4.140	-703.58929	100.69076	1847.41846	-690.03857	-72.91232	1537.74670	-695.88995	285.01031	1540.87427	-607.66968	106.33279	1356.63989	-635.63831	-3.85713	1056.24097	-631.45398	243.21220	1072.25244	-830.07568	100.44538	1059.65723	-694.45135	-66.80482	876.95490	-614.16614	-5.16137	808.76776	-711.86780	-55.74798	761.49341	-727.26733	-31.72713	619.41937	-707.55573	75.89117	574.17175	-731.42743	-30.54576	570.88983	-679.02246	16.57426	522.82703	-771.02783	-42.19998	488.53336	-759.53656	-20.17124	207.46005	-648.66022	-68.12443	161.65309	-606.17041	-73.65279	157.97133	-548.08179	-25.56739	162.72939	-599.82483	26.93220	168.08934	-719.44983	69.88272	217.08694	-674.36847	53.34340	159.77121	-793.25385	38.15916	173.52318	-718.54944	285.93863	877.38092	-617.43427	233.04202	796.94733	-724.16418	273.18533	746.79395	-750.72491	254.70329	643.85773	-708.37726	150.35022	576.87665	-750.89417	251.26527	576.94476	-693.54010	212.57076	537.43774	-787.72028	259.76547	501.27069	-770.00140	229.27002	204.04517	-661.00220	299.38647	155.99582	-624.27679	307.85406	157.29897	-556.65991	255.07761	164.67931	-593.09406	220.16347	175.10425	-713.82159	157.19447	218.96336	-675.68481	174.51573	161.34119	-796.74908	180.11191	183.30479	-528.10840	303.98801	146.45470	-518.17163	-72.75793	143.24574	-875.83618	-78.66642	141.19055	-882.62103	296.23233	144.69016	
